<?xml version="1.0" encoding="utf-8"?>
<!-- Generator: Adobe Illustrator 22.0.1, SVG Export Plug-In . SVG Version: 6.00 Build 0)  -->
<svg version="1.1" id="Capa_1" xmlns="http://www.w3.org/2000/svg" xmlns:xlink="http://www.w3.org/1999/xlink" x="0px" y="0px"
	 viewBox="0 0 320 40" style="enable-background:new 0 0 320 40;" xml:space="preserve">
<style type="text/css">
	.st0{fill:#B8B5B5;}
	.st1{display:none;fill:#FF4400;}
	.st2{display:none;}
	.st3{display:inline;fill:#FFFFFF;}
	.st4{display:none;fill:#FFFFFF;}
	.st5{fill:#FFFFFF;}
</style>
<path class="st0" d="M320,36.6c0,1.9-1.6,3.4-3.4,3.4H3.4C1.6,40,0,38.4,0,36.6V3.4C0,1.6,1.6,0,3.4,0h313.1c1.9,0,3.4,1.6,3.4,3.4
	v33.2C319.9,36.6,320,36.6,320,36.6z"/>
<path class="st1" d="M320,36.6c0,1.9-1.6,3.4-3.4,3.4H3.4C1.6,40,0,38.4,0,36.6V3.4C0,1.6,1.6,0,3.4,0h313.1c1.9,0,3.4,1.6,3.4,3.4
	v33.2C319.9,36.6,320,36.6,320,36.6z"/>
<g class="st2">
	<path class="st3" d="M55.6,27h-2.2l2.5-11.5h-4.2l0.4-1.8h10.7l-0.4,1.8H58L55.6,27z"/>
	<path class="st3" d="M66,24.3l0.6-1.2l5-9.5h2.3L66.6,27h-2.3l-1.6-13.3H65l1,9.5V24.3z"/>
	<path class="st3" d="M82.2,23.3c0.1-0.1,0.1-0.1,0.2,0s0.1,0.1,0.1,0.2L82,25.6c-0.7,0.5-1.4,0.9-2.2,1.1C79,26.9,78.2,27,77.4,27
		c-0.9,0-1.8-0.2-2.4-0.5c-0.7-0.3-1.2-0.8-1.6-1.4s-0.6-1.3-0.7-2.1c-0.1-0.8,0-1.8,0.2-2.8c0.2-1.1,0.6-2,1.1-2.9
		c0.5-0.8,1.1-1.6,1.8-2.1c0.7-0.6,1.4-1,2.3-1.3c0.8-0.3,1.7-0.5,2.6-0.5s1.6,0.1,2.2,0.3s1.1,0.5,1.5,1l-0.5,2.2
		c0,0.1-0.1,0.1-0.1,0.2c-0.1,0-0.1,0-0.1,0c-0.4-0.6-0.9-1.1-1.4-1.3c-0.5-0.3-1.1-0.4-1.8-0.4c-0.6,0-1.2,0.1-1.7,0.3
		s-1,0.5-1.5,0.9s-0.8,0.9-1.2,1.5c-0.3,0.6-0.6,1.3-0.8,2.1c-0.4,1.7-0.3,3,0.2,3.8s1.4,1.2,2.7,1.2c0.7,0,1.4-0.2,2.1-0.5
		S81.6,23.9,82.2,23.3z"/>
	<path class="st3" d="M94.3,13.6l-0.4,1.8H88l-0.7,3.5H93l-0.4,1.8h-5.7L85.5,27h-2.2l2.8-13.3L94.3,13.6L94.3,13.6z"/>
	<path class="st3" d="M95.1,22.5l1.1-5.2h8l0.4-1.8h-8l0.4-1.8h10.2L106,19h-8l-0.4,1.7h8.5l-0.4,1.8h-4.5l-0.5,2.2h6.3l-0.4,1.8H92
		l0.4-1.8h6.3l0.5-2.2H95.1z"/>
	<path class="st3" d="M120.4,16.6h1.6l0.8-3.8h2l-3.3,15.4h-2l1.3-6.2h-2.1l0.4-1.8h2.2l0.4-1.8h-2c-0.7,1.4-1.6,2.7-2.6,3.9
		c-1.1,1.2-2.4,2.2-3.9,3.1L112,24c1-0.6,1.9-1.2,2.6-1.8c0.7-0.6,1.4-1.3,1.9-2s1-1.4,1.3-2.2c0.3-0.7,0.6-1.5,0.8-2.3
		c-0.5,0-0.9,0-1.3,0s-0.8,0-1.3,0h-1.5l0.4-1.8h2.4c0.7,0,1.4,0,2,0s1.3,0,1.9,0c-0.1,0.5-0.2,0.9-0.4,1.4
		C120.7,15.7,120.6,16.2,120.4,16.6z M124.6,28.6h-2l3.4-16h2L124.6,28.6z"/>
	<path class="st3" d="M136.8,18.4l-0.4,1.9h6.5l-0.4,1.8h-15.1l0.4-1.8h6.5l0.4-1.9H136.8z M136.6,28.6l0.8-3.5h-8.6l0.4-1.8h10.7
		l-1.1,5.3C138.8,28.6,136.6,28.6,136.6,28.6z M137.4,14.7c0.2,0.4,0.5,0.7,0.8,1.1c0.3,0.3,0.7,0.6,1.2,0.9
		c0.4,0.3,0.9,0.5,1.4,0.6c0.5,0.2,1,0.3,1.6,0.4l-1.5,1.7c-1.1-0.2-2.1-0.6-2.9-1.1c-0.8-0.5-1.5-1.1-2.1-1.8
		c-0.4,0.4-0.9,0.8-1.4,1.1c-0.5,0.3-1,0.6-1.5,0.9s-1.1,0.5-1.6,0.7s-1.1,0.3-1.6,0.4L129,18c0.9-0.2,1.8-0.4,2.5-0.8
		c0.8-0.3,1.5-0.7,2.1-1.2s1.1-1,1.5-1.5c0.4-0.6,0.7-1.1,0.8-1.8h2.2C138.1,13.3,137.9,14,137.4,14.7z"/>
	<path class="st3" d="M143.9,17.7l0.4-1.8h9.9l-0.4,1.8H143.9z M144,21.9c0.1-0.5,0.3-0.9,0.6-1.3s0.6-0.8,1-1.1
		c0.4-0.3,0.9-0.6,1.4-0.8c0.5-0.2,1.1-0.3,1.8-0.3s1.2,0.1,1.6,0.3c0.5,0.2,0.8,0.5,1.1,0.8s0.4,0.7,0.5,1.1s0.1,0.9,0,1.3
		c-0.1,0.5-0.3,0.9-0.5,1.3c-0.3,0.4-0.6,0.8-1,1.1c-0.4,0.3-0.9,0.6-1.4,0.8c-0.5,0.2-1.1,0.3-1.7,0.3s-1.2-0.1-1.6-0.3
		c-0.5-0.2-0.8-0.5-1.1-0.8s-0.4-0.7-0.5-1.1C143.9,22.8,143.9,22.3,144,21.9z M149.8,21.9c0.1-0.2,0.1-0.5,0-0.7
		c0-0.2-0.1-0.4-0.2-0.6c-0.1-0.2-0.3-0.3-0.5-0.4s-0.5-0.2-0.8-0.2s-0.6,0.1-0.8,0.2c-0.3,0.1-0.5,0.2-0.7,0.4
		c-0.2,0.2-0.4,0.4-0.5,0.6s-0.2,0.4-0.3,0.7c-0.1,0.2-0.1,0.5,0,0.7c0,0.2,0.1,0.4,0.2,0.6c0.1,0.2,0.3,0.3,0.5,0.4
		s0.5,0.1,0.8,0.1s0.6,0,0.8-0.1c0.3-0.1,0.5-0.2,0.7-0.4c0.2-0.2,0.4-0.4,0.5-0.6C149.7,22.4,149.8,22.1,149.8,21.9z M146.5,15
		l0.4-1.8h5.7l-0.4,1.8H146.5z M158.3,20.9h-2.5l-1.6,7.7H152l3.4-15.9h2.1l-1.4,6.5h2.5L158.3,20.9z"/>
	<path class="st3" d="M158,23.8c1.2-0.5,2.2-1.1,3.2-1.7c0.9-0.6,1.7-1.3,2.4-2s1.2-1.4,1.7-2.2c0.4-0.7,0.8-1.5,1-2.2
		c-1.3,0-2.6,0.1-3.8,0.1h-1.8l0.4-1.8h2.7c0.8,0,1.6,0,2.5,0s1.8,0,2.7,0c-0.3,1.2-0.8,2.4-1.3,3.5s-1.2,2.1-2,3.1
		c-0.8,0.9-1.7,1.8-2.8,2.6c-1.1,0.8-2.3,1.5-3.7,2.2L158,23.8z M171.5,12.6h2.1l-3.4,16h-2.1L171.5,12.6z"/>
</g>
<path class="st4" d="M27.9,7.4H12.1c-2.8,0-5,2.2-5,5v15.7c0,2.8,2.2,5,5,5h15.7c2.8,0,5-2.2,5-5V12.4C32.9,9.7,30.6,7.4,27.9,7.4z
	 M21.1,16c0-0.3,0.3-0.5,0.6-0.3l1.9,1.1c0.3,0.2,0.3,0.5,0,0.7l-2,1.1c-0.3,0.2-0.6,0-0.6-0.3V16H21.1z M31,17.9
	c0,0.4-0.2,0.7-0.5,0.8c-0.4,0.1-0.9-0.1-1-0.5c-0.1-0.2-0.2-0.4-0.4-0.4c-0.2-0.1-0.5,0-0.6,0.2s-0.1,0.4-0.1,0.6
	c0,0.1,0,0.2,0,0.3c0,0.2,0,0.4,0,0.5s0,0.1,0,0.2h1.3c0.1,0,0.2,0,0.3,0c0.3,0.1,0.5,0.4,0.5,0.7c0,0.3-0.2,0.6-0.5,0.7
	c-0.1,0-0.2,0.1-0.3,0.1h-1.3V24c0,0.4-0.4,0.8-0.8,0.8h-0.1c-0.4,0-0.8-0.4-0.8-0.8v-1.4l-0.1,0.1c-0.1,0.1-0.2,0.2-0.2,0.2
	c-0.3,0.3-0.7,0.6-1.1,0.9c-0.5,0.4-0.9,0.6-1.4,0.8c-0.4,0.1-0.8,0.2-1.2,0.2c-0.1,0-0.3,0-0.4,0c-0.8-0.1-1.5-0.5-2-1.1
	c0-0.1-0.1-0.1-0.1-0.2c-0.1-0.2-0.2-0.4-0.3-0.6c-0.6,0.7-1.1,1.2-1.5,1.5s-1.1,0.7-1.8,0.4c-0.4-0.1-0.7-0.4-0.9-0.7
	c-0.1-0.2-0.2-0.3-0.2-0.5c-0.1-0.3-0.1-0.6-0.1-0.9c-0.7,0.8-1.3,1.4-1.8,1.8c-0.5,0.3-0.9,0.5-1.3,0.5c-0.2,0-0.4,0-0.5-0.1
	c-0.7-0.3-1.2-1-1.2-1.9v-1.7h-1c-0.4,0-0.8-0.3-0.8-0.8c0-0.4,0.4-0.8,0.8-0.8h1.3v-1c0-0.4,0.4-0.8,0.8-0.8s0.8,0.4,0.8,0.8v1h1.3
	c0.1,0,0.2,0,0.3,0c0.3,0.1,0.5,0.4,0.5,0.7c0,0.3-0.2,0.6-0.5,0.7c-0.1,0-0.2,0.1-0.3,0.1h-1.3V23c0,0.1,0,0.2,0.1,0.3
	c0.1,0.1,0.3-0.1,0.4-0.1l0,0c0.2-0.1,0.3-0.2,0.4-0.4c0.6-0.6,1.2-1.3,1.7-2c0.2-0.3,0.4-0.7,0.7-1c0.2-0.3,0.5-0.5,0.9-0.4
	c0.2,0.1,0.3,0.1,0.4,0.3c0.3,0.4,0.2,1,0.2,1.4c0,0.3,0,0.6,0,0.9c0,0.2,0,0.5,0,0.7c0,0.1,0,0.3,0.1,0.4s0.2,0,0.3-0.1l0,0
	c0.9-0.7,2.4-2.6,2.8-3.3c0-0.1,0.1-0.1,0.2-0.2l0,0c0.4-0.4,1-0.7,1.6-0.7c1,0,1.9,0.6,2.2,1.6c0.1,0.4-0.1,0.9-0.6,1
	c-0.2,0.1-0.4,0-0.6-0.1S23,21,22.9,20.8c-0.1-0.4-0.5-0.4-0.6-0.4s-0.3,0-0.4,0.1s-0.2,0.2-0.3,0.4c-0.1,0.1-0.1,0.3-0.1,0.5
	c0,0.5,0.1,0.9,0.3,1.2l0.1,0.1c0.1,0.1,0.3,0.3,0.5,0.3c0.4,0.1,0.8,0.1,1.2,0c0.5-0.2,0.9-0.5,1.4-1c0.2-0.1,0.3-0.3,0.5-0.5
	s0.3-0.3,0.5-0.5h-0.5c-0.4,0-0.8-0.3-0.8-0.7l0,0c0-0.4,0.3-0.7,0.6-0.8c0.1,0,0.1,0,0.2,0h1.3c0-0.6,0-1.1,0.1-1.7
	c0.1-0.4,0.2-0.7,0.3-0.9c0.1-0.1,0.2-0.2,0.3-0.4c0.3-0.2,0.6-0.4,1-0.5c0.1,0,0.3,0,0.4,0c0.5,0,0.9,0.2,1.3,0.4
	C30.6,16.9,30.9,17.3,31,17.9L31,17.9z"/>
<path class="st5" d="M20.6,15.9v-3.8H11v17.2h19.1V15.9H20.6z M18.6,27.4h-5.7v-1.9h5.7V27.4z M18.6,23.6h-5.7v-1.9h5.7V23.6z
	 M18.6,19.7h-5.7v-1.9h5.7V19.7z M18.6,15.9h-5.7V14h5.7V15.9z M28.2,27.4h-7.7v-9.6h7.7V27.4z M26.3,19.7h-3.8v1.9h3.8V19.7z
	 M26.3,23.6h-3.8v1.9h3.8V23.6z"/>
<g>
	<path class="st5" d="M50.7,25.3L49.4,24c0.8-0.5,1.6-1.1,2.4-1.8c0.7-0.7,1.4-1.4,2-2.2c0.6-0.8,1.1-1.8,1.5-2.8
		c0.4-1.1,0.7-2.2,0.9-3.6h2.2c-0.1,0.8-0.3,1.5-0.5,2.2c-0.2,0.7-0.4,1.4-0.7,2c0.2,1.2,0.5,2.3,1.1,3.3c0.5,0.9,1.3,1.8,2.2,2.5
		L58.6,25c-1.4-1.2-2.4-2.7-3-4.5c-0.6,1-1.4,1.9-2.2,2.6C52.6,23.9,51.7,24.6,50.7,25.3z M65.9,20.2h-2.5l-1.8,8.5h-2.1l3.4-16H65
		l-1.2,5.7h2.5L65.9,20.2z"/>
	<path class="st5" d="M76.1,15.9h2.2l0.7-3.2h2.1l-1.8,8.3h-2.1l0.7-3.3h-2.2c-0.2,0.5-0.4,0.9-0.7,1.3c-0.3,0.4-0.7,0.7-1.1,1
		c-0.4,0.3-0.9,0.5-1.4,0.6c-0.5,0.1-1,0.2-1.6,0.2c-0.6,0-1.2-0.1-1.6-0.3c-0.5-0.2-0.9-0.5-1.1-0.8c-0.3-0.3-0.5-0.8-0.6-1.2
		c-0.1-0.5-0.1-1,0-1.6c0.1-0.6,0.3-1.1,0.6-1.6c0.3-0.5,0.7-0.9,1.1-1.2c0.4-0.3,0.9-0.6,1.5-0.8c0.6-0.2,1.1-0.3,1.8-0.3
		c1,0,1.9,0.3,2.5,0.8C75.7,14.3,76,15,76.1,15.9z M77.8,28.4H67.6l1.4-6.7h2.1l-0.4,1.7h6l0.4-1.8h2.1L77.8,28.4z M72.2,14.7
		c-0.6,0-1.2,0.2-1.6,0.6c-0.4,0.4-0.7,0.9-0.9,1.6c-0.1,0.7-0.1,1.2,0.2,1.6c0.3,0.4,0.7,0.6,1.4,0.6s1.2-0.2,1.6-0.6
		c0.4-0.4,0.7-0.9,0.9-1.6c0.1-0.7,0.1-1.2-0.2-1.6C73.3,14.9,72.9,14.7,72.2,14.7z M76,26.6l0.3-1.6h-6l-0.3,1.6H76z"/>
	<path class="st5" d="M88.2,19.7c0.3,0.8,0.7,1.4,1.2,2.1c0.5,0.6,1,1.2,1.7,1.8l-1.8,1.4c-0.6-0.5-1-1.1-1.4-1.6
		c-0.4-0.6-0.8-1.2-1.1-1.8c-0.7,0.8-1.5,1.5-2.3,2.1c-0.8,0.7-1.7,1.3-2.6,1.8l-1.3-1.4c1-0.5,1.9-1.1,2.8-1.8
		c0.8-0.7,1.6-1.4,2.3-2.1c0.7-0.7,1.2-1.5,1.7-2.2c0.5-0.7,0.8-1.4,1-2.1c-0.6,0-1.1,0.1-1.6,0.1c-0.5,0-1,0-1.5,0h-1.7l0.4-1.9
		h2.7c0.7,0,1.5,0,2.2,0s1.5,0,2.4,0c-0.2,1-0.6,2-1,2.9S88.8,18.8,88.2,19.7z M96.7,20.4h-2.5l-1.7,8.2h-2.1l3.4-16h2.1l-1.3,6h2.5
		L96.7,20.4z"/>
	<path class="st5" d="M110.9,20.2c0.3-0.9,0.7-1.8,0.9-2.7c0.3-0.9,0.5-1.6,0.6-2.3h-8.4l0.4-1.8H115c-0.2,1.2-0.6,2.4-0.9,3.6
		c-0.4,1.2-0.7,2.3-1.1,3.3h2.6l-0.4,1.8h-6.2l-1.4,6.6h-2.2l1.4-6.6h-6.5l0.4-1.8H110.9z"/>
	<path class="st5" d="M122.5,24.4h-6.3l2.2-10.4h6.3L122.5,24.4z M120.8,22.6l1.5-6.9H120l-1.5,6.9H120.8z M128,28.6h-2l1.9-8.7
		h-1.2l-1.8,8.4h-2l3.3-15.4h2l-1.1,5.3h1.2l1.2-5.5h2L128,28.6z"/>
	<path class="st5" d="M137.8,23.1l-0.3,1.3c0.8,0,1.5-0.1,2.3-0.1c0.7-0.1,1.5-0.1,2.2-0.2l-0.4,1.7c-0.6,0.1-1.3,0.2-2,0.2
		c-0.7,0.1-1.4,0.1-2.1,0.2c-0.7,0-1.4,0.1-2.1,0.1c-0.7,0-1.4,0-2,0h-2.7l0.4-1.8h2.7c0.3,0,0.5,0,0.8,0c0.3,0,0.6,0,0.9,0l0.3-1.3
		c-0.9-0.1-1.6-0.5-2-1c-0.4-0.5-0.5-1.1-0.4-1.8c0.1-0.4,0.2-0.8,0.5-1.1c0.2-0.3,0.6-0.6,1-0.9c0.4-0.2,0.8-0.4,1.4-0.6
		c0.5-0.1,1.1-0.2,1.7-0.2c0.6,0,1.2,0.1,1.6,0.2c0.5,0.1,0.8,0.3,1.1,0.6c0.3,0.2,0.5,0.5,0.6,0.9c0.1,0.3,0.1,0.7,0,1.1
		c-0.1,0.7-0.5,1.3-1.1,1.8C139.5,22.6,138.7,22.9,137.8,23.1z M132.9,17.2l0.4-1.7h9.9l-0.4,1.7H132.9z M139.1,20.4
		c0.1-0.3,0-0.6-0.2-0.9c-0.2-0.2-0.7-0.4-1.3-0.4c-0.7,0-1.2,0.1-1.5,0.4c-0.3,0.2-0.5,0.5-0.6,0.9c-0.1,0.4,0,0.7,0.2,0.9
		s0.7,0.3,1.4,0.3c0.7,0,1.2-0.1,1.5-0.3S139,20.7,139.1,20.4z M135.4,14.8l0.4-1.7h5.9l-0.4,1.7H135.4z M143.6,28.6h-2.1l3.4-16
		h2.1L143.6,28.6z"/>
	<path class="st5" d="M147.5,19.9h2.5c0.6,0,1.2,0,1.9,0c0.7,0,1.4,0,2.1-0.1c0.7,0,1.4-0.1,2.1-0.1c0.7-0.1,1.4-0.1,2-0.2l-0.4,1.7
		c-0.6,0.1-1.3,0.2-2,0.2c-0.7,0.1-1.4,0.1-2.2,0.2l-0.6,2.6H151l0.5-2.6c-0.3,0-0.7,0-1,0c-0.3,0-0.6,0-0.9,0h-2.5L147.5,19.9z
		 M159.3,28.3h-11.1l0.8-3.8h2.1l-0.4,2h9.1L159.3,28.3z M157.9,16c-0.1,0.5-0.3,0.9-0.6,1.3c-0.3,0.4-0.6,0.7-1,1
		c-0.4,0.3-0.9,0.5-1.4,0.7c-0.5,0.2-1.1,0.2-1.7,0.2s-1.2-0.1-1.6-0.2c-0.5-0.2-0.9-0.4-1.1-0.7c-0.3-0.3-0.5-0.6-0.6-1
		c-0.1-0.4-0.1-0.8,0-1.3c0.1-0.5,0.3-0.9,0.6-1.3c0.3-0.4,0.6-0.7,1-1c0.4-0.3,0.9-0.5,1.4-0.7c0.5-0.2,1.1-0.2,1.7-0.2
		s1.2,0.1,1.6,0.2c0.5,0.2,0.8,0.4,1.1,0.7c0.3,0.3,0.5,0.6,0.6,1C158,15.1,158,15.6,157.9,16z M155.7,16c0-0.2,0-0.4,0-0.6
		c0-0.2-0.1-0.4-0.2-0.5c-0.1-0.1-0.3-0.3-0.5-0.4c-0.2-0.1-0.5-0.1-0.9-0.1s-0.7,0-1,0.1c-0.3,0.1-0.5,0.2-0.7,0.4
		c-0.2,0.2-0.3,0.3-0.4,0.5c-0.1,0.2-0.2,0.4-0.2,0.6c0,0.2-0.1,0.4,0,0.6c0,0.2,0.1,0.4,0.2,0.5c0.1,0.1,0.3,0.3,0.5,0.4
		c0.2,0.1,0.5,0.1,0.9,0.1s0.7,0,1-0.1c0.3-0.1,0.5-0.2,0.7-0.4c0.2-0.2,0.3-0.3,0.4-0.5C155.6,16.4,155.7,16.2,155.7,16z
		 M157.5,25.3l0.3-1.4h-3.2l0.3-1.6h3.2l2-9.6h2.1l-2.7,12.6H157.5z"/>
	<path class="st5" d="M176.3,24.5l-0.4,1.8h-14.8l0.4-1.8H176.3z M175.7,17.9c-0.1,0.6-0.4,1.2-0.8,1.8c-0.4,0.6-0.8,1-1.4,1.4
		c-0.6,0.4-1.2,0.7-1.9,1c-0.7,0.2-1.5,0.4-2.3,0.4c-0.8,0-1.5-0.1-2.1-0.4c-0.6-0.2-1.1-0.6-1.5-1c-0.4-0.4-0.6-0.9-0.8-1.4
		c-0.1-0.6-0.1-1.1,0-1.8c0.1-0.6,0.4-1.2,0.8-1.8c0.4-0.6,0.8-1,1.4-1.4c0.6-0.4,1.2-0.7,1.9-1c0.7-0.2,1.5-0.4,2.3-0.4
		c0.8,0,1.5,0.1,2.1,0.4c0.6,0.2,1.1,0.6,1.5,1c0.4,0.4,0.6,0.9,0.8,1.4C175.8,16.7,175.8,17.3,175.7,17.9z M173.5,17.9
		c0.1-0.4,0.1-0.7,0-1.1c-0.1-0.3-0.2-0.6-0.4-0.9c-0.2-0.3-0.5-0.5-0.9-0.6c-0.4-0.2-0.8-0.2-1.4-0.2c-0.6,0-1,0.1-1.5,0.2
		c-0.4,0.1-0.8,0.4-1.1,0.6c-0.3,0.3-0.6,0.5-0.8,0.9c-0.2,0.3-0.3,0.7-0.4,1.1c-0.1,0.4-0.1,0.7,0,1.1c0,0.3,0.2,0.6,0.4,0.9
		s0.5,0.5,0.9,0.6c0.4,0.1,0.8,0.2,1.4,0.2c0.6,0,1-0.1,1.5-0.2c0.4-0.1,0.8-0.3,1.1-0.6s0.6-0.5,0.8-0.9
		C173.3,18.6,173.4,18.3,173.5,17.9z"/>
	<path class="st5" d="M179.7,22.5l1.1-5.2h8l0.4-1.8h-8l0.4-1.8h10.2l-1.1,5.3h-8.1l-0.4,1.7h8.5l-0.4,1.8h-4.5l-0.5,2.2h6.3
		l-0.4,1.8h-14.8l0.4-1.8h6.3l0.5-2.2H179.7z"/>
	<path class="st5" d="M196.3,23.9c1.2-0.5,2.2-1.1,3.2-1.7c0.9-0.6,1.7-1.3,2.4-2c0.7-0.7,1.2-1.4,1.7-2.2c0.4-0.7,0.8-1.5,1-2.2
		c-1.3,0-2.6,0.1-3.8,0.1h-1.8l0.4-1.8h2.7c0.8,0,1.6,0,2.5,0s1.8,0,2.7,0c-0.3,1.2-0.8,2.4-1.3,3.5c-0.5,1.1-1.2,2.1-2,3.1
		c-0.8,0.9-1.7,1.8-2.8,2.6c-1.1,0.8-2.3,1.5-3.7,2.2L196.3,23.9z M212.2,20.4h-2.5l-1.7,8.2h-2.1l3.4-16h2.1l-1.3,6h2.5L212.2,20.4
		z"/>
	<path class="st5" d="M218.9,13c0.6,0,1.1,0.1,1.6,0.3c0.5,0.2,0.9,0.5,1.2,0.8c0.3,0.3,0.5,0.8,0.6,1.2c0.1,0.5,0.1,1,0,1.6
		s-0.3,1.1-0.7,1.6c-0.3,0.5-0.7,0.9-1.1,1.2c-0.4,0.3-0.9,0.6-1.5,0.8c-0.6,0.2-1.1,0.3-1.7,0.3c-0.6,0-1.2-0.1-1.6-0.3
		c-0.5-0.2-0.9-0.5-1.1-0.8c-0.3-0.3-0.5-0.8-0.6-1.2c-0.1-0.5-0.1-1,0-1.6s0.3-1.1,0.7-1.6c0.3-0.5,0.7-0.9,1.1-1.2
		c0.4-0.3,0.9-0.6,1.5-0.8C217.7,13.1,218.3,13,218.9,13z M224.1,28.4h-10.2l1.4-6.5h2.1l-0.3,1.5h6l0.4-1.8h2.1L224.1,28.4z
		 M218.5,14.7c-0.6,0-1.2,0.2-1.6,0.6c-0.5,0.4-0.7,0.9-0.9,1.6c-0.1,0.7-0.1,1.2,0.2,1.6c0.3,0.4,0.7,0.6,1.4,0.6s1.2-0.2,1.6-0.6
		c0.5-0.4,0.8-0.9,0.9-1.6c0.1-0.7,0.1-1.2-0.2-1.6C219.6,14.9,219.2,14.7,218.5,14.7z M222.3,26.6l0.3-1.6h-6l-0.3,1.6H222.3z
		 M225.3,12.6h2.1l-1.8,8.3h-2.1L225.3,12.6z"/>
</g>
</svg>
