<?xml version="1.0" encoding="utf-8"?>
<!-- Generator: Adobe Illustrator 22.0.1, SVG Export Plug-In . SVG Version: 6.00 Build 0)  -->
<svg version="1.1" id="레이어_1" xmlns="http://www.w3.org/2000/svg" xmlns:xlink="http://www.w3.org/1999/xlink" x="0px"
	 y="0px" viewBox="0 0 110.1 19.6" style="enable-background:new 0 0 110.1 19.6;" xml:space="preserve">
<g>
	<path d="M8.7,9.8c0,2.3-0.8,4.2-2.4,5.8S2.8,18,0.5,18v-4.9c0.9,0,1.7-0.3,2.3-1c0.6-0.6,0.9-1.4,0.9-2.3v-9h4.9L8.7,9.8L8.7,9.8z"
		/>
	<path d="M23.8,14.5h-5l-0.7,2.1h-5.2l5.5-15.8h5.9l5.5,15.8h-5.2L23.8,14.5z M22.4,10.5l-1.1-3.2l-1.1,3.2H22.4z"/>
	<path d="M50.6,0.8v15.8h-4.9V8.9l-3.3,4.4L39,8.8v7.7h-5V0.8h4.9l0,0l0,0l3.4,4.4l3.4-4.4l0,0C45.7,0.8,50.6,0.8,50.6,0.8z"/>
	<path d="M67.1,19.5l-6.6-8.4v5.5h-4.9V0.8h4.9V6l5.8-5.8l3.5,3.5l-4.9,4.9l6.1,8L67.1,19.5z"/>
	<path d="M85,14.5h-5l-0.7,2.1h-5.2l5.5-15.8h5.9L91,16.6h-5.2L85,14.5z M83.6,10.5l-1.1-3.2l-1.1,3.2H83.6z"/>
	<path d="M110.1,16.6h-4.9l0,0l-5.1-7.3v7.3h-4.9V0.8h4.9l5.1,7.2V0.8h4.9V16.6z"/>
</g>
</svg>
