<?xml version="1.0" encoding="utf-8"?>
<!-- Generator: Adobe Illustrator 22.0.1, SVG Export Plug-In . SVG Version: 6.00 Build 0)  -->
<svg version="1.1" id="Capa_1" xmlns="http://www.w3.org/2000/svg" xmlns:xlink="http://www.w3.org/1999/xlink" x="0px" y="0px"
	 viewBox="0 0 320 40" style="enable-background:new 0 0 320 40;" xml:space="preserve">
<style type="text/css">
	.st0{display:none;fill:#FF4400;}
	.st1{display:none;}
	.st2{display:inline;fill:#FFFFFF;}
	.st3{fill:#1EC800;}
	.st4{fill:#FFFFFF;}
</style>
<path class="st0" d="M320,36.6c0,1.9-1.6,3.4-3.4,3.4H3.4C1.6,40,0,38.4,0,36.6V3.4C0,1.6,1.6,0,3.4,0h313.1c1.9,0,3.4,1.6,3.4,3.4
	v33.2H320z"/>
<g class="st1">
	<path class="st2" d="M55.4,24.9c0.1,0,0.1-0.1,0.2,0c0,0,0.1,0.1,0,0.1l-0.3,1.5c-0.3,0.2-0.7,0.4-1,0.5s-0.8,0.1-1.2,0.1
		c-0.9,0-1.4-0.2-1.7-0.6c-0.3-0.4-0.4-1-0.2-1.9l1.2-5.8h-1.5l0.3-1.6h1.5l0.5-2.3h2.1l-0.5,2.3h2.4l-0.3,1.6h-2.4l-1.2,5.6
		c-0.1,0.3-0.1,0.6,0,0.7c0.1,0.2,0.3,0.2,0.6,0.2c0.3,0,0.6,0,0.8-0.1C55,25.2,55.2,25.1,55.4,24.9z"/>
	<path class="st2" d="M60.4,24.3l0.5-1.1l3.4-6.1h2.2L60.8,27H59l-1.6-9.8h2.2l0.8,6.1L60.4,24.3z"/>
	<path class="st2" d="M73.9,19.9c-0.3-0.4-0.6-0.7-1-0.9c-0.4-0.2-0.9-0.3-1.4-0.3c-0.5,0-0.9,0.1-1.3,0.3c-0.4,0.2-0.7,0.4-1,0.7
		c-0.3,0.3-0.5,0.7-0.7,1.1c-0.2,0.4-0.4,0.9-0.5,1.3c-0.2,1-0.2,1.8,0.2,2.4c0.3,0.6,1,0.9,2,0.9c0.6,0,1.1-0.1,1.6-0.3
		c0.5-0.2,0.9-0.5,1.4-1c0.1-0.1,0.1-0.1,0.2-0.1c0.1,0,0.1,0.1,0.1,0.1l-0.4,1.9c-0.5,0.4-1,0.7-1.6,0.8c-0.5,0.2-1.1,0.2-1.7,0.2
		c-0.7,0-1.4-0.1-1.9-0.3c-0.6-0.2-1-0.5-1.4-0.9c-0.3-0.4-0.6-0.9-0.7-1.6c-0.1-0.6-0.1-1.4,0.1-2.2c0.2-0.8,0.4-1.5,0.8-2.1
		c0.4-0.6,0.8-1.2,1.3-1.6c0.5-0.4,1.1-0.8,1.8-1c0.7-0.2,1.4-0.4,2.1-0.4c0.6,0,1.1,0.1,1.6,0.2c0.5,0.2,0.9,0.4,1.2,0.8l-0.4,1.9
		c0,0.1-0.1,0.1-0.1,0.1S73.9,20,73.9,19.9z"/>
	<path class="st2" d="M81.5,14.4c-0.1-0.1-0.3-0.1-0.5-0.2c-0.2-0.1-0.4-0.1-0.6-0.1c-0.4,0-0.8,0.1-1,0.4c-0.2,0.3-0.4,0.7-0.6,1.4
		l-0.3,1.2h2.1l-0.3,1.6h-2.1L76.5,27h-2.1l1.7-8.1h-1.6l0.3-1.6h1.6l0.3-1.5c0.5-2.1,1.7-3.2,3.8-3.2c0.3,0,0.6,0,0.8,0.1
		c0.2,0.1,0.4,0.2,0.6,0.3l-0.3,1.4c0,0.1,0,0.1-0.1,0.1S81.6,14.4,81.5,14.4z"/>
	<path class="st2" d="M93.1,19.3c-0.2,0.9-0.5,1.8-0.8,2.5c-0.3,0.7-0.8,1.3-1.2,1.8s-1,0.9-1.5,1.1c-0.6,0.3-1.2,0.4-1.8,0.4
		c-0.6,0-1.2-0.1-1.6-0.4c-0.5-0.3-0.8-0.6-1.1-1.1s-0.4-1.1-0.4-1.8c0-0.7,0-1.5,0.2-2.5c0.2-0.9,0.5-1.8,0.8-2.5
		c0.3-0.7,0.8-1.3,1.2-1.8c0.5-0.5,1-0.9,1.5-1.1c0.6-0.3,1.2-0.4,1.8-0.4c0.6,0,1.2,0.1,1.6,0.4c0.5,0.3,0.8,0.6,1.1,1.1
		c0.3,0.5,0.4,1.1,0.4,1.8C93.4,17.5,93.3,18.4,93.1,19.3z M91,19.3c0.3-1.2,0.3-2.2,0.1-2.9c-0.2-0.7-0.6-1.1-1.3-1.1
		c-0.6,0-1.2,0.4-1.7,1.1c-0.5,0.7-0.9,1.7-1.1,2.9s-0.3,2.2-0.1,2.9c0.2,0.7,0.6,1.1,1.3,1.1c0.6,0,1.2-0.4,1.7-1.1
		C90.3,21.5,90.7,20.5,91,19.3z M99.3,20.2h-2.5L95,28.6h-2.1l3.4-16h2.1l-1.2,5.8h2.5L99.3,20.2z"/>
	<path class="st2" d="M108.7,19.3c-0.2,0.9-0.5,1.8-0.8,2.5c-0.4,0.7-0.8,1.3-1.2,1.8s-1,0.9-1.6,1.1c-0.6,0.3-1.2,0.4-1.8,0.4
		s-1.2-0.1-1.6-0.4c-0.5-0.3-0.8-0.6-1.1-1.1s-0.4-1.1-0.5-1.8c0-0.7,0-1.5,0.2-2.5c0.2-0.9,0.5-1.8,0.8-2.5
		c0.4-0.7,0.8-1.3,1.2-1.8c0.5-0.5,1-0.9,1.6-1.1c0.6-0.3,1.2-0.4,1.8-0.4s1.2,0.1,1.6,0.4c0.5,0.3,0.8,0.6,1.1,1.1
		c0.3,0.5,0.4,1.1,0.5,1.8C109,17.5,108.9,18.4,108.7,19.3z M106.6,19.3c0.3-1.2,0.3-2.2,0.1-2.9c-0.2-0.7-0.6-1.1-1.3-1.1
		c-0.6,0-1.2,0.4-1.7,1.1c-0.5,0.7-0.9,1.7-1.1,2.9s-0.3,2.2-0.1,2.9c0.2,0.7,0.6,1.1,1.3,1.1c0.6,0,1.2-0.4,1.7-1.1
		C105.9,21.5,106.3,20.5,106.6,19.3z M112.4,12.6h2.1l-3.4,16H109L112.4,12.6z"/>
	<path class="st2" d="M117.4,13.9h7.6l-0.4,1.8h-5.5l-1.5,7h1.6c1,0,2-0.1,3-0.2c1-0.1,2-0.3,2.8-0.5l-0.4,1.8
		c-0.4,0.1-0.9,0.2-1.4,0.3c-0.5,0.1-1.1,0.2-1.6,0.2c-0.6,0.1-1.1,0.1-1.7,0.2c-0.6,0-1.1,0.1-1.7,0.1h-3.3L117.4,13.9z
		 M127.8,12.6h2.1l-3.4,16h-2.1L127.8,12.6z"/>
	<path class="st2" d="M132.3,22.5l1.1-5.2h8l0.4-1.8h-8l0.4-1.8h10.2l-1.1,5.3h-8.1l-0.4,1.7h8.5l-0.4,1.8h-4.5l-0.5,2.2h6.3
		l-0.4,1.8h-14.8l0.4-1.8h6.3l0.5-2.2H132.3z"/>
	<path class="st2" d="M148.8,23.8c1.2-0.5,2.2-1.1,3.2-1.7c0.9-0.6,1.7-1.3,2.4-2c0.7-0.7,1.2-1.4,1.7-2.2c0.4-0.7,0.8-1.5,1-2.2
		c-1.3,0-2.6,0.1-3.8,0.1h-1.8l0.4-1.8h2.7c0.8,0,1.6,0,2.5,0s1.8,0,2.7,0c-0.3,1.2-0.8,2.4-1.3,3.5c-0.5,1.1-1.2,2.1-2,3.1
		c-0.8,0.9-1.7,1.8-2.8,2.6c-1.1,0.8-2.3,1.5-3.7,2.2L148.8,23.8z M164.7,20.4h-2.5l-1.7,8.2h-2.1l3.4-16h2.1l-1.3,6h2.5L164.7,20.4
		z"/>
	<path class="st2" d="M171.5,13c0.6,0,1.1,0.1,1.6,0.3c0.5,0.2,0.9,0.5,1.2,0.8c0.3,0.3,0.5,0.8,0.6,1.2c0.1,0.5,0.1,1,0,1.6
		s-0.3,1.1-0.7,1.6c-0.3,0.5-0.7,0.9-1.1,1.2c-0.4,0.3-0.9,0.6-1.5,0.8c-0.6,0.2-1.1,0.3-1.7,0.3c-0.6,0-1.2-0.1-1.6-0.3
		c-0.5-0.2-0.9-0.5-1.2-0.8c-0.3-0.3-0.5-0.8-0.6-1.2c-0.1-0.5-0.1-1,0-1.6c0.1-0.6,0.3-1.1,0.7-1.6c0.3-0.5,0.7-0.9,1.1-1.2
		c0.4-0.3,0.9-0.6,1.5-0.8C170.3,13,170.9,13,171.5,13z M176.6,28.4h-10.2l1.4-6.5h2.1l-0.3,1.5h6l0.4-1.8h2.1L176.6,28.4z
		 M171.1,14.7c-0.6,0-1.2,0.2-1.6,0.6c-0.5,0.4-0.7,0.9-0.9,1.6c-0.1,0.7-0.1,1.2,0.2,1.6c0.3,0.4,0.7,0.6,1.4,0.6s1.2-0.2,1.6-0.6
		c0.5-0.4,0.8-0.9,0.9-1.6c0.1-0.7,0.1-1.2-0.2-1.6C172.2,14.9,171.7,14.7,171.1,14.7z M174.9,26.6l0.3-1.6h-6l-0.3,1.6H174.9z
		 M177.8,12.6h2.1l-1.8,8.3h-2.1L177.8,12.6z"/>
</g>
<g class="st1">
	<path class="st2" d="M37.3,17.6c0-0.3,0-0.6,0.1-0.9c0.1-0.4,0.5-0.4,0.9-0.4c0.3,0.1,0.5,0.4,0.5,0.7c0.2,0.6,0.9,1,1.5,0.8
		c0.5-0.2,0.9-0.7,0.8-1.3v0c-0.2-0.8-0.6-1.5-1.2-1.9c-0.5-0.4-1.2-0.6-1.9-0.6c-0.2,0-0.4,0-0.6,0c-0.6,0.1-1.1,0.4-1.5,0.7
		c-0.2,0.2-0.3,0.3-0.4,0.5c-0.2,0.3-0.4,0.8-0.5,1.3c-0.2,0.9-0.1,1.7-0.1,2.6h-2c-0.1,0-0.2,0-0.3,0c-0.6,0.1-0.9,0.6-0.9,1.2
		c0,0,0,0,0,0c0,0.7,0.6,1.1,1.2,1.1h0.7c-0.3,0.3-0.5,0.5-0.8,0.8c-0.2,0.2-0.5,0.5-0.7,0.7c-0.8,0.7-1.5,1.2-2.2,1.5
		c-0.6,0.2-1.3,0.2-1.8,0.1c-0.3-0.1-0.6-0.3-0.8-0.5c0,0-0.1-0.1-0.1-0.2c-0.3-0.4-0.5-1.1-0.5-1.8c0-0.3,0.1-0.6,0.2-0.8
		c0.1-0.2,0.3-0.4,0.5-0.6c0.2-0.1,0.4-0.2,0.6-0.2c0.2,0,0.8,0,0.9,0.6c0.1,0.3,0.3,0.6,0.6,0.7c0.3,0.2,0.6,0.2,0.9,0.1
		c0.6-0.2,1-0.8,0.9-1.5c-0.4-1.5-1.7-2.5-3.3-2.4c-0.9,0-1.8,0.4-2.5,1.1l0,0c-0.1,0.1-0.2,0.2-0.2,0.3c-0.7,1.1-2.9,4-4.3,5
		l-0.1,0c-0.2,0.2-0.4,0.3-0.5,0.2c-0.1-0.1-0.1-0.4-0.1-0.6c0-0.4,0-0.8,0-1.1c0-0.5,0-0.9,0-1.4c0-0.7,0.2-1.6-0.3-2.2
		c-0.1-0.2-0.4-0.4-0.6-0.4c-0.6-0.2-1,0.1-1.4,0.6c-0.4,0.5-0.7,1-1.1,1.5c-0.8,1.1-1.6,2.1-2.6,3c-0.2,0.2-0.4,0.4-0.7,0.5l0,0
		c-0.2,0.1-0.4,0.3-0.6,0.2C13,24.5,13,24.3,13,24.1c0,0,0-2.8,0-2.8h2c0.2,0,0.3,0,0.5-0.1c0.4-0.2,0.7-0.6,0.7-1.1
		c0-0.5-0.3-0.9-0.7-1.1C15.3,19,15.1,19,14.9,19h-2v-1.4c0-0.7-0.6-1.2-1.2-1.2c-0.7,0-1.2,0.5-1.2,1.2v1.4H8.5
		c-0.7,0-1.2,0.5-1.2,1.2c0,0.7,0.5,1.2,1.2,1.2h1.9V24c0,1.4,0.7,2.5,1.8,2.9c0.3,0.1,0.5,0.1,0.8,0.1c0.7,0,1.3-0.3,2-0.8
		c0.7-0.5,1.6-1.4,2.7-2.7c0,0.5-0.1,1,0.1,1.4c0.1,0.3,0.2,0.5,0.3,0.8c0.3,0.5,0.8,0.9,1.3,1.1c1.1,0.4,2.2-0.2,2.8-0.6
		c0.6-0.5,1.4-1.2,2.3-2.3c0.1,0.3,0.2,0.6,0.4,0.9c0.1,0.1,0.1,0.2,0.2,0.3c0.7,1,1.8,1.6,3,1.7c0.2,0,0.4,0,0.6,0
		c0.6,0,1.3-0.1,1.9-0.3c0.7-0.3,1.4-0.6,2.1-1.2c0.6-0.5,1.1-1,1.6-1.4c0.1-0.1,0.2-0.2,0.4-0.4l0.1-0.1v2.2c0,0.6,0.5,1.2,1.1,1.2
		c0,0,0.1,0,0.2,0c0.6,0,1.2-0.6,1.2-1.2v-4.4h1.9c0.2,0,0.3,0,0.5-0.1c0.4-0.2,0.7-0.6,0.7-1.1s-0.3-0.9-0.7-1.1
		c-0.1-0.1-0.3-0.1-0.5-0.1h-2c0-0.2,0-0.2,0-0.3c0-0.3,0-0.6,0-0.8C37.3,17.8,37.3,17.7,37.3,17.6z"/>
	<path class="st2" d="M26.9,17.5l3-1.7c0.4-0.2,0.4-0.8,0-1.1l-3-1.7c-0.4-0.2-0.9,0.1-0.9,0.5V17C26,17.4,26.5,17.7,26.9,17.5z"/>
</g>
<path class="st3" d="M320,36.6c0,1.9-1.6,3.4-3.4,3.4H3.4C1.6,40,0,38.4,0,36.6V3.4C0,1.6,1.6,0,3.4,0h313.1c1.9,0,3.4,1.6,3.4,3.4
	V36.6z"/>
<g>
	<polygon class="st4" points="23,11.3 23,20.1 17,11.3 10.5,11.3 10.5,28.8 17,28.8 17,19.9 23,28.8 29.6,28.8 29.6,11.3 	"/>
</g>
<g>
	<path class="st4" d="M53.5,22.5c0.8,0,1.5,0,2.3-0.1c0.8-0.1,1.5-0.2,2.3-0.4l-0.4,1.8c-0.8,0.2-1.6,0.3-2.5,0.4
		c-0.9,0.1-1.8,0.1-2.7,0.1h-1.6l2.2-10.5h2.2L53.5,22.5z M60.7,12.8h2.1l-3.3,15.4h-2.1l1.9-8.9h-2.9l0.4-1.8h2.9L60.7,12.8z
		 M62.9,28.6h-2.1l3.4-16h2.1L62.9,28.6z"/>
	<path class="st4" d="M75.4,19.3c-0.2,0.9-0.5,1.8-0.8,2.5s-0.8,1.3-1.2,1.8c-0.5,0.5-1,0.9-1.6,1.1s-1.2,0.4-1.8,0.4
		s-1.2-0.1-1.6-0.4s-0.8-0.6-1.1-1.1c-0.3-0.5-0.4-1.1-0.5-1.8c0-0.7,0-1.5,0.2-2.5c0.2-0.9,0.5-1.8,0.8-2.5
		c0.4-0.7,0.8-1.3,1.2-1.8c0.5-0.5,1-0.9,1.6-1.1c0.6-0.3,1.2-0.4,1.8-0.4s1.2,0.1,1.6,0.4c0.5,0.3,0.8,0.6,1.1,1.1
		c0.3,0.5,0.4,1.1,0.5,1.8C75.6,17.6,75.5,18.4,75.4,19.3z M73.2,19.3c0.3-1.2,0.3-2.2,0.1-2.9c-0.2-0.7-0.6-1.1-1.3-1.1
		c-0.6,0-1.2,0.4-1.7,1.1c-0.5,0.7-0.9,1.7-1.1,2.9s-0.3,2.2-0.1,2.9c0.2,0.7,0.6,1.1,1.3,1.1c0.6,0,1.2-0.4,1.7-1.1
		C72.5,21.6,72.9,20.6,73.2,19.3z M79,12.6h2.1l-3.4,16h-2.1L79,12.6z"/>
	<path class="st4" d="M90.4,18.1h2.8l1.2-5.4h2.1l-3.4,16H91l1.9-8.8H90l-1,4.5h-7.5l2.3-10.6H86l-0.8,3.8h3.2l0.8-3.8h2.1
		L90.4,18.1z M88,19.4h-3.2l-0.7,3.2h3.2L88,19.4z"/>
	<path class="st4" d="M109.8,19.3c-0.2,0.9-0.5,1.8-0.8,2.5s-0.8,1.3-1.2,1.8c-0.5,0.5-1,0.9-1.5,1.1s-1.2,0.4-1.8,0.4
		c-0.6,0-1.2-0.1-1.6-0.4s-0.8-0.6-1.1-1.1c-0.3-0.5-0.4-1.1-0.4-1.8s0-1.5,0.2-2.5c0.2-0.9,0.5-1.8,0.8-2.5
		c0.3-0.7,0.8-1.3,1.2-1.8c0.5-0.5,1-0.9,1.5-1.1c0.6-0.3,1.2-0.4,1.8-0.4c0.6,0,1.2,0.1,1.6,0.4c0.5,0.3,0.8,0.6,1.1,1.1
		c0.3,0.5,0.4,1.1,0.4,1.8C110.1,17.6,110,18.4,109.8,19.3z M107.6,19.3c0.3-1.2,0.3-2.2,0.1-2.9c-0.2-0.7-0.6-1.1-1.3-1.1
		c-0.6,0-1.2,0.4-1.7,1.1c-0.5,0.7-0.9,1.7-1.1,2.9s-0.3,2.2-0.1,2.9c0.2,0.7,0.6,1.1,1.3,1.1c0.6,0,1.2-0.4,1.7-1.1
		C107,21.6,107.4,20.6,107.6,19.3z M116,20.2h-2.5l-1.8,8.4h-2.1l3.4-16h2.1l-1.2,5.8h2.5L116,20.2z"/>
	<path class="st4" d="M125.4,19.3c-0.2,0.9-0.5,1.8-0.8,2.5s-0.8,1.3-1.2,1.8c-0.5,0.5-1,0.9-1.6,1.1s-1.2,0.4-1.8,0.4
		s-1.2-0.1-1.6-0.4s-0.8-0.6-1.1-1.1c-0.3-0.5-0.4-1.1-0.5-1.8c0-0.7,0-1.5,0.2-2.5c0.2-0.9,0.5-1.8,0.8-2.5
		c0.4-0.7,0.8-1.3,1.2-1.8c0.5-0.5,1-0.9,1.6-1.1c0.6-0.3,1.2-0.4,1.8-0.4s1.2,0.1,1.6,0.4c0.5,0.3,0.8,0.6,1.1,1.1
		c0.3,0.5,0.4,1.1,0.5,1.8C125.7,17.6,125.6,18.4,125.4,19.3z M123.2,19.3c0.3-1.2,0.3-2.2,0.1-2.9c-0.2-0.7-0.6-1.1-1.3-1.1
		c-0.6,0-1.2,0.4-1.7,1.1c-0.5,0.7-0.9,1.7-1.1,2.9s-0.3,2.2-0.1,2.9c0.2,0.7,0.6,1.1,1.3,1.1c0.6,0,1.2-0.4,1.7-1.1
		C122.6,21.6,123,20.6,123.2,19.3z M129.1,12.6h2.1l-3.4,16h-2.1L129.1,12.6z"/>
	<path class="st4" d="M134,14h7.6l-0.4,1.8h-5.5l-1.5,7h1.6c1,0,2-0.1,3-0.2s2-0.3,2.8-0.5l-0.4,1.8c-0.4,0.1-0.9,0.2-1.4,0.3
		c-0.5,0.1-1.1,0.2-1.6,0.2c-0.6,0.1-1.1,0.1-1.7,0.2c-0.6,0-1.1,0.1-1.7,0.1h-3.3L134,14z M144.5,12.6h2.1l-3.4,16h-2.1L144.5,12.6
		z"/>
	<path class="st4" d="M148.9,22.5l1.1-5.2h8l0.4-1.8h-8l0.4-1.8H161l-1.1,5.3h-8.1l-0.4,1.7h8.5l-0.4,1.8h-4.5l-0.5,2.2h6.3
		l-0.4,1.8h-14.8l0.4-1.8h6.3l0.5-2.2H148.9z"/>
	<path class="st4" d="M168.2,22.5l1.1-5.2h8l0.4-1.8h-8l0.4-1.8h10.2l-1.1,5.3H171l-0.4,1.7h8.5l-0.4,1.8h-4.5l-0.5,2.2h6.3
		l-0.4,1.8H165l0.4-1.8h6.3l0.5-2.2H168.2z"/>
	<path class="st4" d="M193,15.9h-8.2l0.4-1.8h10.4c-0.2,0.9-0.4,1.7-0.7,2.6c-0.3,0.9-0.5,1.8-0.8,2.7c-0.3,0.9-0.6,1.8-0.9,2.6
		c-0.3,0.9-0.6,1.7-0.9,2.5h3.2l-0.4,1.8h-14.8l0.4-1.8h9.4c0.6-1.5,1.1-2.9,1.6-4.4C192.3,18.6,192.7,17.2,193,15.9z"/>
	<path class="st4" d="M198.3,17.4c0.1-0.6,0.3-1.2,0.7-1.7s0.7-0.9,1.2-1.3c0.5-0.4,1-0.7,1.5-0.9s1.2-0.3,1.8-0.3s1.2,0.1,1.7,0.3
		c0.5,0.2,0.9,0.5,1.2,0.9c0.3,0.4,0.5,0.8,0.6,1.3c0.1,0.5,0.1,1.1,0,1.7c-0.1,0.6-0.3,1.1-0.7,1.6c-0.3,0.5-0.7,0.9-1.2,1.3
		c-0.5,0.4-1,0.7-1.5,0.9c-0.6,0.2-1.2,0.3-1.8,0.3s-1.2-0.1-1.6-0.3s-0.9-0.5-1.2-0.9c-0.3-0.4-0.5-0.8-0.6-1.3
		C198.1,18.5,198.1,18,198.3,17.4z M209,28.3h-10.5l1-4.9h2.1l-0.7,3.1h8.3L209,28.3z M200.5,17.4c-0.1,0.7-0.1,1.3,0.2,1.7
		c0.3,0.4,0.7,0.6,1.4,0.6c0.6,0,1.2-0.2,1.6-0.6c0.5-0.4,0.8-1,0.9-1.7c0.2-0.7,0.1-1.3-0.2-1.8c-0.3-0.4-0.7-0.6-1.4-0.6
		c-0.6,0-1.2,0.2-1.6,0.6C200.9,16.1,200.6,16.7,200.5,17.4z M209.6,24h-2.1l2.4-11.4h2.1L209.6,24z"/>
</g>
</svg>
