<?xml version="1.0" encoding="utf-8"?>
<!-- Generator: Adobe Illustrator 22.0.1, SVG Export Plug-In . SVG Version: 6.00 Build 0)  -->
<svg version="1.1" id="Capa_1" xmlns="http://www.w3.org/2000/svg" xmlns:xlink="http://www.w3.org/1999/xlink" x="0px" y="0px"
	 viewBox="0 0 320 40" style="enable-background:new 0 0 320 40;" xml:space="preserve">
<style type="text/css">
	.st0{fill:#FF4400;}
	.st1{fill:#FFFFFF;}
	.st2{display:none;fill:#FF4400;}
	.st3{display:none;}
	.st4{display:inline;fill:#FFFFFF;}
	.st5{display:none;fill:#FFFFFF;}
</style>
<path class="st0" d="M320,36.6c0,1.9-1.6,3.4-3.4,3.4H3.4C1.6,40,0,38.4,0,36.6V3.4C0,1.6,1.6,0,3.4,0h313.1c1.9,0,3.4,1.6,3.4,3.4
	v33.2C319.9,36.6,320,36.6,320,36.6z"/>
<g>
	<path class="st1" d="M37.3,17.6c0-0.3,0-0.6,0.1-0.9c0.1-0.4,0.5-0.4,0.9-0.4c0.3,0.1,0.5,0.4,0.5,0.7c0.2,0.6,0.9,1,1.5,0.8
		c0.5-0.2,0.9-0.7,0.8-1.3l0,0c-0.2-0.8-0.6-1.5-1.2-1.9C39.4,14.2,38.7,14,38,14c-0.2,0-0.4,0-0.6,0c-0.6,0.1-1.1,0.4-1.5,0.7
		c-0.2,0.2-0.3,0.3-0.4,0.5c-0.2,0.3-0.4,0.8-0.5,1.3c-0.2,0.9-0.1,1.7-0.1,2.6h-2c-0.1,0-0.2,0-0.3,0c-0.6,0.1-0.9,0.6-0.9,1.2l0,0
		c0,0.7,0.6,1.1,1.2,1.1h0.7c-0.3,0.3-0.5,0.5-0.8,0.8c-0.2,0.2-0.5,0.5-0.7,0.7c-0.8,0.7-1.5,1.2-2.2,1.5c-0.6,0.2-1.3,0.2-1.8,0.1
		c-0.3-0.1-0.6-0.3-0.8-0.5c0,0-0.1-0.1-0.1-0.2c-0.3-0.4-0.5-1.1-0.5-1.8c0-0.3,0.1-0.6,0.2-0.8c0.1-0.2,0.3-0.4,0.5-0.6
		c0.2-0.1,0.4-0.2,0.6-0.2s0.8,0,0.9,0.6c0.1,0.3,0.3,0.6,0.6,0.7c0.3,0.2,0.6,0.2,0.9,0.1c0.6-0.2,1-0.8,0.9-1.5
		c-0.4-1.5-1.7-2.5-3.3-2.4c-0.9,0-1.8,0.4-2.5,1.1l0,0c-0.1,0.1-0.2,0.2-0.2,0.3c-0.7,1.1-2.9,4-4.3,5h-0.1
		c-0.2,0.2-0.4,0.3-0.5,0.2c-0.1-0.1-0.1-0.4-0.1-0.6c0-0.4,0-0.8,0-1.1c0-0.5,0-0.9,0-1.4c0-0.7,0.2-1.6-0.3-2.2
		c-0.1-0.2-0.4-0.4-0.6-0.4c-0.6-0.2-1,0.1-1.4,0.6s-0.7,1-1.1,1.5c-0.8,1.1-1.6,2.1-2.6,3c-0.2,0.2-0.4,0.4-0.7,0.5l0,0
		c-0.2,0.1-0.4,0.3-0.6,0.2c0-0.1,0-0.3,0-0.5v-2.8h2c0.2,0,0.3,0,0.5-0.1c0.4-0.2,0.7-0.6,0.7-1.1s-0.3-0.9-0.7-1.1
		c-0.2,0-0.4,0-0.6,0h-2v-1.4c0-0.7-0.6-1.2-1.2-1.2c-0.7,0-1.2,0.5-1.2,1.2V19h-2c-0.7,0-1.2,0.5-1.2,1.2s0.5,1.2,1.2,1.2h1.9V24
		c0,1.4,0.7,2.5,1.8,2.9C12.5,27,12.7,27,13,27c0.7,0,1.3-0.3,2-0.8s1.6-1.4,2.7-2.7c0,0.5-0.1,1,0.1,1.4c0.1,0.3,0.2,0.5,0.3,0.8
		c0.3,0.5,0.8,0.9,1.3,1.1c1.1,0.4,2.2-0.2,2.8-0.6c0.6-0.5,1.4-1.2,2.3-2.3c0.1,0.3,0.2,0.6,0.4,0.9c0.1,0.1,0.1,0.2,0.2,0.3
		c0.7,1,1.8,1.6,3,1.7c0.2,0,0.4,0,0.6,0c0.6,0,1.3-0.1,1.9-0.3c0.7-0.3,1.4-0.6,2.1-1.2c0.6-0.5,1.1-1,1.6-1.4
		c0.1-0.1,0.2-0.2,0.4-0.4l0.1-0.1v2.2c0,0.6,0.5,1.2,1.1,1.2c0,0,0.1,0,0.2,0c0.6,0,1.2-0.6,1.2-1.2v-4.4h1.9c0.2,0,0.3,0,0.5-0.1
		c0.4-0.2,0.7-0.6,0.7-1.1s-0.3-0.9-0.7-1.1c-0.1-0.1-0.3-0.1-0.5-0.1h-2c0-0.2,0-0.2,0-0.3c0-0.3,0-0.6,0-0.8
		C37.3,17.8,37.3,17.7,37.3,17.6z"/>
	<path class="st1" d="M26.9,17.5l3-1.7c0.4-0.2,0.4-0.8,0-1.1l-3-1.7c-0.4-0.2-0.9,0.1-0.9,0.5V17C26,17.4,26.5,17.7,26.9,17.5z"/>
</g>
<path class="st2" d="M320,36.6c0,1.9-1.6,3.4-3.4,3.4H3.4C1.6,40,0,38.4,0,36.6V3.4C0,1.6,1.6,0,3.4,0h313.1c1.9,0,3.4,1.6,3.4,3.4
	v33.2C319.9,36.6,320,36.6,320,36.6z"/>
<g class="st3">
	<path class="st4" d="M55.6,27h-2.2l2.5-11.5h-4.2l0.4-1.8h10.7l-0.4,1.8H58L55.6,27z"/>
	<path class="st4" d="M66,24.3l0.6-1.2l5-9.5h2.3L66.6,27h-2.3l-1.6-13.3H65l1,9.5V24.3z"/>
	<path class="st4" d="M82.2,23.3c0.1-0.1,0.1-0.1,0.2,0s0.1,0.1,0.1,0.2L82,25.6c-0.7,0.5-1.4,0.9-2.2,1.1C79,26.9,78.2,27,77.4,27
		c-0.9,0-1.8-0.2-2.4-0.5c-0.7-0.3-1.2-0.8-1.6-1.4s-0.6-1.3-0.7-2.1c-0.1-0.8,0-1.8,0.2-2.8c0.2-1.1,0.6-2,1.1-2.9
		c0.5-0.8,1.1-1.6,1.8-2.1c0.7-0.6,1.4-1,2.3-1.3c0.8-0.3,1.7-0.5,2.6-0.5s1.6,0.1,2.2,0.3s1.1,0.5,1.5,1l-0.5,2.2
		c0,0.1-0.1,0.1-0.1,0.2c-0.1,0-0.1,0-0.1,0c-0.4-0.6-0.9-1.1-1.4-1.3c-0.5-0.3-1.1-0.4-1.8-0.4c-0.6,0-1.2,0.1-1.7,0.3
		s-1,0.5-1.5,0.9s-0.8,0.9-1.2,1.5c-0.3,0.6-0.6,1.3-0.8,2.1c-0.4,1.7-0.3,3,0.2,3.8s1.4,1.2,2.7,1.2c0.7,0,1.4-0.2,2.1-0.5
		S81.6,23.9,82.2,23.3z"/>
	<path class="st4" d="M94.3,13.6l-0.4,1.8H88l-0.7,3.5H93l-0.4,1.8h-5.7L85.5,27h-2.2l2.8-13.3L94.3,13.6L94.3,13.6z"/>
	<path class="st4" d="M95.1,22.5l1.1-5.2h8l0.4-1.8h-8l0.4-1.8h10.2L106,19h-8l-0.4,1.7h8.5l-0.4,1.8h-4.5l-0.5,2.2h6.3l-0.4,1.8H92
		l0.4-1.8h6.3l0.5-2.2H95.1z"/>
	<path class="st4" d="M120.4,16.6h1.6l0.8-3.8h2l-3.3,15.4h-2l1.3-6.2h-2.1l0.4-1.8h2.2l0.4-1.8h-2c-0.7,1.4-1.6,2.7-2.6,3.9
		c-1.1,1.2-2.4,2.2-3.9,3.1L112,24c1-0.6,1.9-1.2,2.6-1.8c0.7-0.6,1.4-1.3,1.9-2s1-1.4,1.3-2.2c0.3-0.7,0.6-1.5,0.8-2.3
		c-0.5,0-0.9,0-1.3,0s-0.8,0-1.3,0h-1.5l0.4-1.8h2.4c0.7,0,1.4,0,2,0s1.3,0,1.9,0c-0.1,0.5-0.2,0.9-0.4,1.4
		C120.7,15.7,120.6,16.2,120.4,16.6z M124.6,28.6h-2l3.4-16h2L124.6,28.6z"/>
	<path class="st4" d="M136.8,18.4l-0.4,1.9h6.5l-0.4,1.8h-15.1l0.4-1.8h6.5l0.4-1.9H136.8z M136.6,28.6l0.8-3.5h-8.6l0.4-1.8h10.7
		l-1.1,5.3C138.8,28.6,136.6,28.6,136.6,28.6z M137.4,14.7c0.2,0.4,0.5,0.7,0.8,1.1c0.3,0.3,0.7,0.6,1.2,0.9
		c0.4,0.3,0.9,0.5,1.4,0.6c0.5,0.2,1,0.3,1.6,0.4l-1.5,1.7c-1.1-0.2-2.1-0.6-2.9-1.1c-0.8-0.5-1.5-1.1-2.1-1.8
		c-0.4,0.4-0.9,0.8-1.4,1.1c-0.5,0.3-1,0.6-1.5,0.9s-1.1,0.5-1.6,0.7s-1.1,0.3-1.6,0.4L129,18c0.9-0.2,1.8-0.4,2.5-0.8
		c0.8-0.3,1.5-0.7,2.1-1.2s1.1-1,1.5-1.5c0.4-0.6,0.7-1.1,0.8-1.8h2.2C138.1,13.3,137.9,14,137.4,14.7z"/>
	<path class="st4" d="M143.9,17.7l0.4-1.8h9.9l-0.4,1.8H143.9z M144,21.9c0.1-0.5,0.3-0.9,0.6-1.3s0.6-0.8,1-1.1
		c0.4-0.3,0.9-0.6,1.4-0.8c0.5-0.2,1.1-0.3,1.8-0.3s1.2,0.1,1.6,0.3c0.5,0.2,0.8,0.5,1.1,0.8s0.4,0.7,0.5,1.1s0.1,0.9,0,1.3
		c-0.1,0.5-0.3,0.9-0.5,1.3c-0.3,0.4-0.6,0.8-1,1.1c-0.4,0.3-0.9,0.6-1.4,0.8c-0.5,0.2-1.1,0.3-1.7,0.3s-1.2-0.1-1.6-0.3
		c-0.5-0.2-0.8-0.5-1.1-0.8s-0.4-0.7-0.5-1.1C143.9,22.8,143.9,22.3,144,21.9z M149.8,21.9c0.1-0.2,0.1-0.5,0-0.7
		c0-0.2-0.1-0.4-0.2-0.6c-0.1-0.2-0.3-0.3-0.5-0.4s-0.5-0.2-0.8-0.2s-0.6,0.1-0.8,0.2c-0.3,0.1-0.5,0.2-0.7,0.4
		c-0.2,0.2-0.4,0.4-0.5,0.6s-0.2,0.4-0.3,0.7c-0.1,0.2-0.1,0.5,0,0.7c0,0.2,0.1,0.4,0.2,0.6c0.1,0.2,0.3,0.3,0.5,0.4
		s0.5,0.1,0.8,0.1s0.6,0,0.8-0.1c0.3-0.1,0.5-0.2,0.7-0.4c0.2-0.2,0.4-0.4,0.5-0.6C149.7,22.4,149.8,22.1,149.8,21.9z M146.5,15
		l0.4-1.8h5.7l-0.4,1.8H146.5z M158.3,20.9h-2.5l-1.6,7.7H152l3.4-15.9h2.1l-1.4,6.5h2.5L158.3,20.9z"/>
	<path class="st4" d="M158,23.8c1.2-0.5,2.2-1.1,3.2-1.7c0.9-0.6,1.7-1.3,2.4-2s1.2-1.4,1.7-2.2c0.4-0.7,0.8-1.5,1-2.2
		c-1.3,0-2.6,0.1-3.8,0.1h-1.8l0.4-1.8h2.7c0.8,0,1.6,0,2.5,0s1.8,0,2.7,0c-0.3,1.2-0.8,2.4-1.3,3.5s-1.2,2.1-2,3.1
		c-0.8,0.9-1.7,1.8-2.8,2.6c-1.1,0.8-2.3,1.5-3.7,2.2L158,23.8z M171.5,12.6h2.1l-3.4,16h-2.1L171.5,12.6z"/>
</g>
<path class="st5" d="M27.9,7.4H12.1c-2.8,0-5,2.2-5,5v15.7c0,2.8,2.2,5,5,5h15.7c2.8,0,5-2.2,5-5V12.4C32.9,9.7,30.6,7.4,27.9,7.4z
	 M21.1,16c0-0.3,0.3-0.5,0.6-0.3l1.9,1.1c0.3,0.2,0.3,0.5,0,0.7l-2,1.1c-0.3,0.2-0.6,0-0.6-0.3V16H21.1z M31,17.9
	c0,0.4-0.2,0.7-0.5,0.8c-0.4,0.1-0.9-0.1-1-0.5c-0.1-0.2-0.2-0.4-0.4-0.4c-0.2-0.1-0.5,0-0.6,0.2s-0.1,0.4-0.1,0.6
	c0,0.1,0,0.2,0,0.3c0,0.2,0,0.4,0,0.5s0,0.1,0,0.2h1.3c0.1,0,0.2,0,0.3,0c0.3,0.1,0.5,0.4,0.5,0.7c0,0.3-0.2,0.6-0.5,0.7
	c-0.1,0-0.2,0.1-0.3,0.1h-1.3V24c0,0.4-0.4,0.8-0.8,0.8h-0.1c-0.4,0-0.8-0.4-0.8-0.8v-1.4l-0.1,0.1c-0.1,0.1-0.2,0.2-0.2,0.2
	c-0.3,0.3-0.7,0.6-1.1,0.9c-0.5,0.4-0.9,0.6-1.4,0.8c-0.4,0.1-0.8,0.2-1.2,0.2c-0.1,0-0.3,0-0.4,0c-0.8-0.1-1.5-0.5-2-1.1
	c0-0.1-0.1-0.1-0.1-0.2c-0.1-0.2-0.2-0.4-0.3-0.6c-0.6,0.7-1.1,1.2-1.5,1.5s-1.1,0.7-1.8,0.4c-0.4-0.1-0.7-0.4-0.9-0.7
	c-0.1-0.2-0.2-0.3-0.2-0.5c-0.1-0.3-0.1-0.6-0.1-0.9c-0.7,0.8-1.3,1.4-1.8,1.8c-0.5,0.3-0.9,0.5-1.3,0.5c-0.2,0-0.4,0-0.5-0.1
	c-0.7-0.3-1.2-1-1.2-1.9v-1.7h-1c-0.4,0-0.8-0.3-0.8-0.8c0-0.4,0.4-0.8,0.8-0.8h1.3v-1c0-0.4,0.4-0.8,0.8-0.8s0.8,0.4,0.8,0.8v1h1.3
	c0.1,0,0.2,0,0.3,0c0.3,0.1,0.5,0.4,0.5,0.7c0,0.3-0.2,0.6-0.5,0.7c-0.1,0-0.2,0.1-0.3,0.1h-1.3V23c0,0.1,0,0.2,0.1,0.3
	c0.1,0.1,0.3-0.1,0.4-0.1l0,0c0.2-0.1,0.3-0.2,0.4-0.4c0.6-0.6,1.2-1.3,1.7-2c0.2-0.3,0.4-0.7,0.7-1c0.2-0.3,0.5-0.5,0.9-0.4
	c0.2,0.1,0.3,0.1,0.4,0.3c0.3,0.4,0.2,1,0.2,1.4c0,0.3,0,0.6,0,0.9c0,0.2,0,0.5,0,0.7c0,0.1,0,0.3,0.1,0.4s0.2,0,0.3-0.1l0,0
	c0.9-0.7,2.4-2.6,2.8-3.3c0-0.1,0.1-0.1,0.2-0.2l0,0c0.4-0.4,1-0.7,1.6-0.7c1,0,1.9,0.6,2.2,1.6c0.1,0.4-0.1,0.9-0.6,1
	c-0.2,0.1-0.4,0-0.6-0.1S23,21,22.9,20.8c-0.1-0.4-0.5-0.4-0.6-0.4s-0.3,0-0.4,0.1s-0.2,0.2-0.3,0.4c-0.1,0.1-0.1,0.3-0.1,0.5
	c0,0.5,0.1,0.9,0.3,1.2l0.1,0.1c0.1,0.1,0.3,0.3,0.5,0.3c0.4,0.1,0.8,0.1,1.2,0c0.5-0.2,0.9-0.5,1.4-1c0.2-0.1,0.3-0.3,0.5-0.5
	s0.3-0.3,0.5-0.5h-0.5c-0.4,0-0.8-0.3-0.8-0.7l0,0c0-0.4,0.3-0.7,0.6-0.8c0.1,0,0.1,0,0.2,0h1.3c0-0.6,0-1.1,0.1-1.7
	c0.1-0.4,0.2-0.7,0.3-0.9c0.1-0.1,0.2-0.2,0.3-0.4c0.3-0.2,0.6-0.4,1-0.5c0.1,0,0.3,0,0.4,0c0.5,0,0.9,0.2,1.3,0.4
	C30.6,16.9,30.9,17.3,31,17.9L31,17.9z"/>
<g>
	<path class="st1" d="M54.9,27h-2.2l2.5-11.5h-4.2l0.4-1.8H62l-0.4,1.8h-4.3L54.9,27z"/>
	<path class="st1" d="M65.3,24.4l0.6-1.2l5-9.5h2.3L65.9,27h-2.3l-1.6-13.3h2.3l1,9.5L65.3,24.4z"/>
	<path class="st1" d="M81.5,23.4c0.1-0.1,0.1-0.1,0.2,0c0.1,0,0.1,0.1,0.1,0.2l-0.5,2.2c-0.7,0.5-1.4,0.9-2.2,1.1
		c-0.8,0.2-1.6,0.3-2.4,0.3c-0.9,0-1.8-0.2-2.4-0.5c-0.7-0.3-1.2-0.8-1.6-1.4c-0.4-0.6-0.6-1.3-0.7-2.1c-0.1-0.8,0-1.8,0.2-2.8
		c0.2-1.1,0.6-2,1.1-2.9c0.5-0.8,1.1-1.6,1.8-2.1c0.7-0.6,1.4-1,2.3-1.3c0.8-0.3,1.7-0.5,2.6-0.5c0.9,0,1.6,0.1,2.2,0.3
		c0.6,0.2,1.1,0.5,1.5,1l-0.5,2.2c0,0.1-0.1,0.1-0.1,0.2c-0.1,0-0.1,0-0.1,0c-0.4-0.6-0.9-1.1-1.4-1.3c-0.5-0.3-1.1-0.4-1.8-0.4
		c-0.6,0-1.2,0.1-1.7,0.3c-0.5,0.2-1,0.5-1.5,0.9c-0.5,0.4-0.8,0.9-1.2,1.5c-0.3,0.6-0.6,1.3-0.8,2.1c-0.4,1.7-0.3,3,0.2,3.8
		c0.5,0.8,1.4,1.2,2.7,1.2c0.7,0,1.4-0.2,2.1-0.5C80.2,24.5,80.9,24,81.5,23.4z"/>
	<path class="st1" d="M93.6,13.7l-0.4,1.8h-5.9l-0.7,3.5h5.7l-0.4,1.8h-5.7L84.8,27h-2.2l2.8-13.3H93.6z"/>
	<path class="st1" d="M105.4,19.4c-0.2,0.9-0.5,1.8-0.8,2.5s-0.8,1.3-1.2,1.8c-0.5,0.5-1,0.9-1.5,1.1s-1.2,0.4-1.8,0.4
		c-0.6,0-1.2-0.1-1.6-0.4s-0.8-0.6-1.1-1.1c-0.3-0.5-0.4-1.1-0.4-1.8s0-1.5,0.2-2.5c0.2-0.9,0.5-1.8,0.8-2.5
		c0.3-0.7,0.8-1.3,1.2-1.8c0.5-0.5,1-0.9,1.5-1.1c0.6-0.3,1.2-0.4,1.8-0.4c0.6,0,1.2,0.1,1.6,0.4c0.5,0.3,0.8,0.6,1.1,1.1
		c0.3,0.5,0.4,1.1,0.4,1.8C105.7,17.6,105.6,18.4,105.4,19.4z M103.2,19.4c0.3-1.2,0.3-2.2,0.1-2.9c-0.2-0.7-0.6-1.1-1.3-1.1
		c-0.6,0-1.2,0.4-1.7,1.1c-0.5,0.7-0.9,1.7-1.1,2.9s-0.3,2.2-0.1,2.9c0.2,0.7,0.6,1.1,1.3,1.1c0.6,0,1.2-0.4,1.7-1.1
		C102.6,21.6,102.9,20.6,103.2,19.4z M111.6,20.2h-2.5l-1.8,8.4h-2.1l3.4-16h2.1l-1.2,5.8h2.5L111.6,20.2z"/>
	<path class="st1" d="M121,19.4c-0.2,0.9-0.5,1.8-0.8,2.5s-0.8,1.3-1.2,1.8c-0.5,0.5-1,0.9-1.6,1.1s-1.2,0.4-1.8,0.4
		s-1.2-0.1-1.6-0.4s-0.8-0.6-1.1-1.1c-0.3-0.5-0.4-1.1-0.5-1.8c0-0.7,0-1.5,0.2-2.5c0.2-0.9,0.5-1.8,0.8-2.5
		c0.4-0.7,0.8-1.3,1.2-1.8c0.5-0.5,1-0.9,1.6-1.1c0.6-0.3,1.2-0.4,1.8-0.4s1.2,0.1,1.6,0.4c0.5,0.3,0.8,0.6,1.1,1.1
		c0.3,0.5,0.4,1.1,0.5,1.8C121.2,17.6,121.2,18.4,121,19.4z M118.8,19.4c0.3-1.2,0.3-2.2,0.1-2.9c-0.2-0.7-0.6-1.1-1.3-1.1
		c-0.6,0-1.2,0.4-1.7,1.1c-0.5,0.7-0.9,1.7-1.1,2.9s-0.3,2.2-0.1,2.9c0.2,0.7,0.6,1.1,1.3,1.1c0.6,0,1.2-0.4,1.7-1.1
		C118.2,21.6,118.5,20.6,118.8,19.4z M124.6,12.7h2.1l-3.4,16h-2.1L124.6,12.7z"/>
	<path class="st1" d="M129.6,14h7.6l-0.4,1.8h-5.5l-1.5,7h1.6c1,0,2-0.1,3-0.2s2-0.3,2.8-0.5l-0.4,1.8c-0.4,0.1-0.9,0.2-1.4,0.3
		c-0.5,0.1-1.1,0.2-1.6,0.2c-0.6,0.1-1.1,0.1-1.7,0.2c-0.6,0-1.1,0.1-1.7,0.1h-3.3L129.6,14z M140,12.7h2.1l-3.4,16h-2.1L140,12.7z"
		/>
	<path class="st1" d="M144.5,22.5l1.1-5.2h8l0.4-1.8h-8l0.4-1.8h10.2l-1.1,5.3h-8.1l-0.4,1.7h8.5l-0.4,1.8h-4.5l-0.5,2.2h6.3
		l-0.4,1.8h-14.8l0.4-1.8h6.3l0.5-2.2H144.5z"/>
	<path class="st1" d="M163.8,22.5l1.1-5.2h8l0.4-1.8h-8l0.4-1.8h10.2l-1.1,5.3h-8.1l-0.4,1.7h8.5l-0.4,1.8h-4.5l-0.5,2.2h6.3
		l-0.4,1.8h-14.8l0.4-1.8h6.3l0.5-2.2H163.8z"/>
	<path class="st1" d="M188.5,15.9h-8.2l0.4-1.8h10.4c-0.2,0.9-0.4,1.7-0.7,2.6c-0.3,0.9-0.5,1.8-0.8,2.7c-0.3,0.9-0.6,1.8-0.9,2.6
		c-0.3,0.9-0.6,1.7-0.9,2.5h3.2l-0.4,1.8H176l0.4-1.8h9.4c0.6-1.5,1.1-2.9,1.6-4.4C187.8,18.6,188.2,17.2,188.5,15.9z"/>
	<path class="st1" d="M193.8,17.4c0.1-0.6,0.3-1.2,0.7-1.7s0.7-0.9,1.2-1.3c0.5-0.4,1-0.7,1.5-0.9s1.2-0.3,1.8-0.3s1.2,0.1,1.7,0.3
		c0.5,0.2,0.9,0.5,1.2,0.9c0.3,0.4,0.5,0.8,0.6,1.3c0.1,0.5,0.1,1.1,0,1.7c-0.1,0.6-0.3,1.1-0.7,1.6c-0.3,0.5-0.7,0.9-1.2,1.3
		c-0.5,0.4-1,0.7-1.5,0.9c-0.6,0.2-1.2,0.3-1.8,0.3s-1.2-0.1-1.6-0.3s-0.9-0.5-1.2-0.9c-0.3-0.4-0.5-0.8-0.6-1.3
		C193.7,18.6,193.7,18,193.8,17.4z M204.6,28.3h-10.5l1-4.9h2.1l-0.7,3.1h8.3L204.6,28.3z M196,17.4c-0.1,0.7-0.1,1.3,0.2,1.7
		c0.3,0.4,0.7,0.6,1.4,0.6c0.6,0,1.2-0.2,1.6-0.6c0.5-0.4,0.8-1,0.9-1.7c0.2-0.7,0.1-1.3-0.2-1.8c-0.3-0.4-0.7-0.6-1.4-0.6
		c-0.6,0-1.2,0.2-1.6,0.6C196.5,16.1,196.2,16.7,196,17.4z M205.2,24h-2.1l2.4-11.4h2.1L205.2,24z"/>
</g>
</svg>
